<svg width="31" height="31" viewBox="0 0 31 31" fill="none" xmlns="http://www.w3.org/2000/svg">
<path d="M15.6109 13.8248C15.5883 13.796 15.5595 13.7727 15.5267 13.7566C15.4938 13.7406 15.4577 13.7323 15.4211 13.7323C15.3846 13.7323 15.3485 13.7406 15.3156 13.7566C15.2827 13.7727 15.2539 13.796 15.2314 13.8248L11.858 18.0927C11.8302 18.1282 11.8129 18.1708 11.8082 18.2157C11.8035 18.2605 11.8115 18.3058 11.8313 18.3463C11.8511 18.3869 11.8819 18.421 11.9201 18.4449C11.9584 18.4687 12.0026 18.4813 12.0478 18.4812H14.2736V25.7822C14.2736 25.9147 14.382 26.0231 14.5145 26.0231H16.3217C16.4542 26.0231 16.5627 25.9147 16.5627 25.7822V18.4842H18.7945C18.9963 18.4842 19.1078 18.2523 18.9843 18.0957L15.6109 13.8248Z" fill="#0152A5"/>
<path d="M24.4388 11.0448C23.0593 7.40635 19.5444 4.81909 15.427 4.81909C11.3097 4.81909 7.79476 7.40334 6.41529 11.0418C3.83405 11.7195 1.92749 14.0718 1.92749 16.8669C1.92749 20.1951 4.62318 22.8908 7.94837 22.8908H9.15616C9.28869 22.8908 9.39712 22.7823 9.39712 22.6498V20.8426C9.39712 20.7101 9.28869 20.6017 9.15616 20.6017H7.94837C6.93335 20.6017 5.97856 20.1981 5.26774 19.4662C4.55993 18.7373 4.18344 17.7554 4.21657 16.7374C4.24368 15.9422 4.51475 15.1952 5.0057 14.5658C5.50869 13.9242 6.21349 13.4574 6.9966 13.2495L8.13812 12.9513L8.55678 11.849C8.81581 11.1623 9.17725 10.5207 9.63205 9.9394C10.081 9.36324 10.6129 8.85676 11.2103 8.43644C12.4482 7.56599 13.906 7.10516 15.427 7.10516C16.9481 7.10516 18.4058 7.56599 19.6438 8.43644C20.2431 8.85811 20.7732 9.36412 21.222 9.9394C21.6768 10.5207 22.0383 11.1653 22.2973 11.849L22.7129 12.9483L23.8514 13.2495C25.4839 13.6893 26.6255 15.1742 26.6255 16.8669C26.6255 17.8638 26.2369 18.8036 25.5321 19.5084C25.1865 19.856 24.7753 20.1317 24.3224 20.3193C23.8695 20.507 23.3839 20.603 22.8937 20.6017H21.6859C21.5533 20.6017 21.4449 20.7101 21.4449 20.8426V22.6498C21.4449 22.7823 21.5533 22.8908 21.6859 22.8908H22.8937C26.2188 22.8908 28.9145 20.1951 28.9145 16.8669C28.9145 14.0748 27.014 11.7255 24.4388 11.0448Z" fill="#0152A5"/>
</svg>
